<svg width="36" height="36" viewBox="0 0 36 36" fill="none" xmlns="http://www.w3.org/2000/svg">
<path d="M4.6685 31.3137H27.2452L26.167 28.0561L28.7462 30.1214L31.1102 32.0981L35.4168 35.4561V3.65641C35.3092 1.67973 33.4852 0 31.2242 0L4.67641 0.00443201C2.417 0.00443201 0.583496 1.68712 0.583496 3.6638V27.6558C0.583496 29.7403 2.41383 31.3137 4.6685 31.3137ZM21.3695 8.39571L21.3172 8.41344L21.3362 8.39571H21.3695ZM9.28708 10.2705C12.1893 8.29969 14.8794 8.39424 14.8794 8.39424L15.0963 8.59368C11.5449 9.38405 9.93466 10.8643 9.93466 10.8643C9.93466 10.8643 10.3653 10.6679 11.1174 10.368C15.9007 8.61288 21.1241 8.73993 25.9596 10.9618C25.9596 10.9618 24.3462 9.57758 21.0132 8.69118L21.3077 8.42083C21.7685 8.4223 24.2068 8.50208 26.8162 10.2823C26.8162 10.2823 29.7358 14.9359 29.7358 20.6532C29.6392 20.5439 27.9245 23.1144 23.5117 23.2031C23.5117 23.2031 22.7644 22.4142 22.2324 21.7257C24.8132 21.0343 25.7791 19.6516 25.7791 19.6516C24.932 20.1494 24.1593 20.4449 23.5323 20.7404C22.5681 21.1363 21.6022 21.3313 20.638 21.5307C16.0717 22.2221 13.5082 21.0654 11.0857 20.1479L10.2577 19.755C10.2577 19.755 11.2219 21.1378 13.6998 21.8291C13.0491 22.522 12.4047 23.3094 12.4047 23.3094C7.9935 23.2119 6.38483 20.6414 6.38483 20.6414C6.38483 14.9152 9.28708 10.2705 9.28708 10.2705Z" fill="white"/>
<path d="M21.6543 18.8672C22.7801 18.8672 23.6968 17.9808 23.6968 16.8875C23.6968 15.8017 22.7848 14.9153 21.6543 14.9153V14.9197C20.5333 14.9197 19.615 15.8032 19.6118 16.8964C19.6118 17.9808 20.5286 18.8672 21.6543 18.8672Z" fill="white"/>
<path d="M14.3423 18.8672C15.4681 18.8672 16.3848 17.9808 16.3848 16.8875C16.3848 15.8017 15.4744 14.9153 14.3486 14.9153L14.3423 14.9197C13.2166 14.9197 12.2998 15.8032 12.2998 16.8964C12.2998 17.9808 13.2166 18.8672 14.3423 18.8672Z" fill="white"/>
</svg>
