<svg width="57" height="57" viewBox="0 0 57 57" fill="none" xmlns="http://www.w3.org/2000/svg">
<circle cx="28.5" cy="28.5" r="28.5" fill="white"/>
<path d="M28.28 40.418C27.9333 40.418 27.682 40.34 27.526 40.184C27.37 40.0453 27.292 39.8113 27.292 39.482V38.286C25.056 38.0953 23.4093 37.636 22.352 36.908C22.1267 36.752 22.014 36.6133 22.014 36.492C22.014 36.4227 22.0573 36.3187 22.144 36.18L22.976 34.828C23.08 34.672 23.1753 34.594 23.262 34.594C23.3487 34.594 23.4613 34.6373 23.6 34.724C24.3107 35.1053 25.0907 35.4087 25.94 35.634C26.8067 35.842 27.6647 35.946 28.514 35.946C29.7447 35.946 30.6287 35.738 31.166 35.322C31.7207 34.906 31.998 34.2907 31.998 33.476C31.998 32.9213 31.868 32.4793 31.608 32.15C31.348 31.8207 30.9753 31.5433 30.49 31.318C30.0047 31.0753 29.2073 30.7547 28.098 30.356C26.4513 29.7667 25.1253 29.056 24.12 28.224C23.1147 27.3747 22.612 26.2567 22.612 24.87C22.612 23.5007 23.0193 22.4173 23.834 21.62C24.6487 20.8227 25.8013 20.32 27.292 20.112V18.812C27.292 18.4827 27.37 18.24 27.526 18.084C27.682 17.928 27.9333 17.85 28.28 17.85H29.424C29.7707 17.85 30.022 17.928 30.178 18.084C30.334 18.24 30.412 18.4827 30.412 18.812V20.034C31.3307 20.086 32.1193 20.216 32.778 20.424C33.4367 20.632 34.026 20.9267 34.546 21.308C34.754 21.464 34.858 21.6027 34.858 21.724C34.858 21.8453 34.8233 21.9493 34.754 22.036L33.948 23.336C33.844 23.492 33.7487 23.57 33.662 23.57C33.5927 23.57 33.4887 23.5267 33.35 23.44C32.8647 23.1107 32.258 22.8593 31.53 22.686C30.8193 22.4953 30.0393 22.4 29.19 22.4C28.098 22.4 27.2747 22.5993 26.72 22.998C26.1827 23.3793 25.914 24.012 25.914 24.896C25.914 25.3987 26.0267 25.806 26.252 26.118C26.4773 26.4127 26.7893 26.664 27.188 26.872C27.5867 27.0627 28.1933 27.314 29.008 27.626L30.1 28.042C31.4347 28.562 32.4573 29.056 33.168 29.524C33.896 29.9747 34.4333 30.5207 34.78 31.162C35.1267 31.786 35.3 32.592 35.3 33.58C35.3 34.8453 34.884 35.894 34.052 36.726C33.22 37.558 32.0067 38.078 30.412 38.286V39.482C30.412 39.8113 30.334 40.0453 30.178 40.184C30.0393 40.34 29.788 40.418 29.424 40.418H28.28Z" fill="#115C70"/>
</svg>
