<svg width="13" height="8" viewBox="0 0 13 8" fill="none" xmlns="http://www.w3.org/2000/svg">
<path d="M12.5529 1.50679C12.8328 1.20145 12.8121 0.727029 12.5068 0.447134C12.2015 0.16724 11.727 0.187867 11.4471 0.493207L12.5529 1.50679ZM6.5 7L5.94713 7.50679C6.08919 7.66177 6.28977 7.75 6.5 7.75C6.71023 7.75 6.91081 7.66177 7.05287 7.50679L6.5 7ZM1.55287 0.493207C1.27297 0.187867 0.798546 0.16724 0.493207 0.447135C0.187867 0.727029 0.16724 1.20145 0.447135 1.50679L1.55287 0.493207ZM11.4471 0.493207L5.94713 6.49321L7.05287 7.50679L12.5529 1.50679L11.4471 0.493207ZM7.05287 6.49321L1.55287 0.493207L0.447135 1.50679L5.94713 7.50679L7.05287 6.49321Z" fill="#115C70" fill-opacity="0.8"/>
</svg>
