<svg width="29" height="29" viewBox="0 0 29 29" fill="none" xmlns="http://www.w3.org/2000/svg">
<path d="M22.1822 0.684206C20.6068 0.682989 19.0954 1.30366 17.9796 2.40997C16.8638 3.51629 16.2348 5.01784 16.2308 6.58503V13.1276C15.6178 13.1688 14.9911 13.1947 14.3414 13.1947C13.6917 13.1947 13.0681 13.2206 12.4521 13.2572V6.58503C12.4271 5.03143 11.7891 3.5499 10.6758 2.46005C9.56261 1.3702 8.06333 0.759387 6.50145 0.759387C4.93957 0.759387 3.44029 1.3702 2.32705 2.46005C1.21381 3.5499 0.575842 5.03143 0.550781 6.58503V22.222C0.575842 23.7756 1.21381 25.2571 2.32705 26.347C3.44029 27.4368 4.93957 28.0476 6.50145 28.0476C8.06333 28.0476 9.56261 27.4368 10.6758 26.347C11.7891 25.2571 12.4271 23.7756 12.4521 22.222V15.6794C13.065 15.6382 13.6917 15.6123 14.3414 15.6123C14.9911 15.6123 15.6148 15.5864 16.2308 15.5498V22.222C16.2558 23.7756 16.8938 25.2571 18.007 26.347C19.1203 27.4368 20.6195 28.0476 22.1814 28.0476C23.7433 28.0476 25.2426 27.4368 26.3558 26.347C27.4691 25.2571 28.107 23.7756 28.1321 22.222V6.58503C28.128 5.0181 27.4993 3.51678 26.3838 2.41051C25.2683 1.30424 23.7573 0.683393 22.1822 0.684206ZM6.50068 3.10185C7.43039 3.10144 8.3223 3.46795 8.98071 4.12095C9.63913 4.77396 10.0103 5.66013 10.0127 6.58503V13.5133C8.27168 13.7643 6.57151 14.2424 4.95613 14.9355C4.25623 15.2411 3.59736 15.6323 2.99479 16.1001V6.58503C2.99722 5.66118 3.36752 4.77594 4.02461 4.12311C4.68169 3.47028 5.57203 3.10306 6.50068 3.10185ZM10.0127 22.222C10.0127 23.1486 9.64268 24.0373 8.98405 24.6925C8.32542 25.3477 7.43213 25.7158 6.50068 25.7158C5.56924 25.7158 4.67594 25.3477 4.01731 24.6925C3.35868 24.0373 2.98866 23.1486 2.98866 22.222V20.6534C2.98866 19.2678 4.09191 17.9553 5.94139 17.1382C7.24457 16.5789 8.61193 16.1811 10.0127 15.9538V22.222ZM22.1822 25.7052C21.2525 25.7056 20.3606 25.3391 19.7021 24.6861C19.0437 24.033 18.6726 23.1469 18.6702 22.222V15.2937C20.4112 15.0428 22.1114 14.5646 23.7267 13.8715C24.4266 13.5659 25.0855 13.1747 25.6881 12.7069V22.222C25.6856 23.1458 25.3153 24.0311 24.6583 24.6839C24.0012 25.3367 23.1108 25.7039 22.1822 25.7052ZM22.7415 11.6596C21.4383 12.219 20.0709 12.6168 18.6702 12.8441V6.58503C18.6702 5.6584 19.0402 4.76973 19.6988 4.1145C20.3574 3.45928 21.2507 3.09118 22.1822 3.09118C23.1136 3.09118 24.0069 3.45928 24.6656 4.1145C25.3242 4.76973 25.6942 5.6584 25.6942 6.58503V8.1536C25.6942 9.53315 24.591 10.8456 22.7415 11.6596Z" fill="url(#paint0_linear_424_7931)"/>
<defs>
<linearGradient id="paint0_linear_424_7931" x1="2.2976" y1="26.009" x2="26.1034" y2="2.01398" gradientUnits="userSpaceOnUse">
<stop stop-color="#00AEE9"/>
<stop offset="1" stop-color="#69FABD"/>
</linearGradient>
</defs>
</svg>
