<svg width="31" height="28" viewBox="0 0 31 28" fill="none" xmlns="http://www.w3.org/2000/svg">
<path d="M28.496 2.5302C26.8728 0.90693 24.7237 0.019716 22.4301 0.019716C20.1365 0.019716 17.9809 0.913502 16.3576 2.53678L15.5099 3.38456L14.6489 2.52363C13.0257 0.900359 10.8635 0 8.56987 0C6.28283 0 4.12723 0.893786 2.51052 2.51049C0.88725 4.13376 -0.00653597 6.28937 3.59862e-05 8.58298C3.59862e-05 10.8766 0.900394 13.0256 2.52367 14.6489L14.8658 26.991C15.0367 27.1619 15.2667 27.2539 15.4901 27.2539C15.7136 27.2539 15.9436 27.1685 16.1145 26.9976L28.4829 14.6752C30.1062 13.0519 31 10.8963 31 8.60269C31.0065 6.30908 30.1193 4.15348 28.496 2.5302Z" fill="#115C70"/>
</svg>
