<svg width="31" height="27" viewBox="0 0 31 27" fill="none" xmlns="http://www.w3.org/2000/svg">
<path d="M14.818 3.96475L15.5099 4.62755L16.2017 3.96475L17.0494 3.15251C18.4825 1.77954 20.3886 1.01889 22.4301 1.01889C24.4728 1.01889 26.372 1.774 27.8042 3.14621C29.2345 4.51647 30.0057 6.32153 30 8.23905V8.24204C30 10.1594 29.223 11.9656 27.7919 13.3371C27.7916 13.3373 27.7914 13.3376 27.7911 13.3379L15.4936 25.076L3.21548 13.3127C1.78175 11.9391 1.00004 10.138 1.00004 8.22315L1.00003 8.22016C0.994303 6.30466 1.77062 4.49901 3.20233 3.12732C4.62869 1.76076 6.53478 1 8.56987 1C10.6102 1 12.5233 1.76618 13.9571 3.13991L14.818 3.96475ZM15.5576 25.1374L15.5573 25.1371L15.5576 25.1374Z" stroke="#115C70" stroke-width="2"/>
</svg>
