<svg width="31" height="27" viewBox="0 0 31 27" fill="none" xmlns="http://www.w3.org/2000/svg">
<path d="M28.496 2.42413C26.8728 0.868908 24.7237 0.0188894 22.4301 0.0188894C20.1365 0.0188894 17.9809 0.875205 16.3576 2.43043L15.5099 3.24267L14.6489 2.41783C13.0257 0.862612 10.8635 0 8.56987 0C6.28283 0 4.12723 0.856315 2.51052 2.40524C0.88725 3.96046 -0.00653597 6.02569 3.59862e-05 8.22315C3.59862e-05 10.4206 0.900394 12.4795 2.52367 14.0348L14.8658 25.8595C15.0367 26.0232 15.2667 26.1113 15.4901 26.1113C15.7136 26.1113 15.9436 26.0295 16.1145 25.8658L28.4829 14.0599C30.1062 12.5047 31 10.4395 31 8.24204C31.0065 6.04458 30.1193 3.97935 28.496 2.42413Z" fill="#115C70"/>
</svg>
