<svg width="36" height="32" viewBox="0 0 36 32" fill="none" xmlns="http://www.w3.org/2000/svg">
<path d="M33.3873 0.0877686L20.1025 9.9705L22.5592 4.13982L33.3873 0.0877686Z" fill="#E2761B" stroke="#E2761B" stroke-width="0.133515" stroke-linecap="round" stroke-linejoin="round"/>
<path d="M2.71875 0.0877686L15.8967 10.0641L13.5602 4.13982L2.71875 0.0877686Z" fill="#E4761B" stroke="#E4761B" stroke-width="0.133515" stroke-linecap="round" stroke-linejoin="round"/>
<path d="M28.6075 22.9957L25.0693 28.4252L32.6397 30.5114L34.816 23.1161L28.6075 22.9957Z" fill="#E4761B" stroke="#E4761B" stroke-width="0.133515" stroke-linecap="round" stroke-linejoin="round"/>
<path d="M1.31689 23.1161L3.47984 30.5114L11.0502 28.4252L7.51201 22.9957L1.31689 23.1161Z" fill="#E4761B" stroke="#E4761B" stroke-width="0.133515" stroke-linecap="round" stroke-linejoin="round"/>
<path d="M10.6227 13.8218L8.51318 17.018L16.0301 17.3523L15.7631 9.2616L10.6227 13.8218Z" fill="#E4761B" stroke="#E4761B" stroke-width="0.133515" stroke-linecap="round" stroke-linejoin="round"/>
<path d="M25.4832 13.8218L20.2761 9.16797L20.1025 17.3523L27.6061 17.018L25.4832 13.8218Z" fill="#E4761B" stroke="#E4761B" stroke-width="0.133515" stroke-linecap="round" stroke-linejoin="round"/>
<path d="M11.0503 28.4254L15.5631 26.2189L11.6645 23.1698L11.0503 28.4254Z" fill="#E4761B" stroke="#E4761B" stroke-width="0.133515" stroke-linecap="round" stroke-linejoin="round"/>
<path d="M20.543 26.2189L25.0691 28.4254L24.4416 23.1698L20.543 26.2189Z" fill="#E4761B" stroke="#E4761B" stroke-width="0.133515" stroke-linecap="round" stroke-linejoin="round"/>
<path d="M25.0693 28.4253L20.5431 26.2188L20.9036 29.1742L20.8635 30.4179L25.0693 28.4253Z" fill="#D7C1B3" stroke="#D7C1B3" stroke-width="0.133515" stroke-linecap="round" stroke-linejoin="round"/>
<path d="M11.0503 28.4253L15.256 30.4179L15.2293 29.1742L15.5631 26.2188L11.0503 28.4253Z" fill="#D7C1B3" stroke="#D7C1B3" stroke-width="0.133515" stroke-linecap="round" stroke-linejoin="round"/>
<path d="M15.3227 21.2172L11.5576 20.1072L14.2146 18.8903L15.3227 21.2172Z" fill="#233447" stroke="#233447" stroke-width="0.133515" stroke-linecap="round" stroke-linejoin="round"/>
<path d="M20.7837 21.2172L21.8919 18.8903L24.5622 20.1072L20.7837 21.2172Z" fill="#233447" stroke="#233447" stroke-width="0.133515" stroke-linecap="round" stroke-linejoin="round"/>
<path d="M11.0499 28.4256L11.6907 22.9961L7.51172 23.1165L11.0499 28.4256Z" fill="#CD6116" stroke="#CD6116" stroke-width="0.133515" stroke-linecap="round" stroke-linejoin="round"/>
<path d="M24.4282 22.9961L25.0691 28.4256L28.6073 23.1165L24.4282 22.9961Z" fill="#CD6116" stroke="#CD6116" stroke-width="0.133515" stroke-linecap="round" stroke-linejoin="round"/>
<path d="M27.6057 17.0183L20.1022 17.3526L20.7965 21.2175L21.9046 18.8905L24.5749 20.1075L27.6057 17.0183Z" fill="#CD6116" stroke="#CD6116" stroke-width="0.133515" stroke-linecap="round" stroke-linejoin="round"/>
<path d="M11.5573 20.1075L14.2276 18.8905L15.3225 21.2175L16.0301 17.3526L8.51318 17.0183L11.5573 20.1075Z" fill="#CD6116" stroke="#CD6116" stroke-width="0.133515" stroke-linecap="round" stroke-linejoin="round"/>
<path d="M8.51367 17.0187L11.6646 23.1703L11.5578 20.1079L8.51367 17.0187Z" fill="#E4751F" stroke="#E4751F" stroke-width="0.133515" stroke-linecap="round" stroke-linejoin="round"/>
<path d="M24.5754 20.1075L24.4419 23.1699L27.6062 17.0183L24.5754 20.1075Z" fill="#E4751F" stroke="#E4751F" stroke-width="0.133515" stroke-linecap="round" stroke-linejoin="round"/>
<path d="M16.0305 17.3521L15.3229 21.2169L16.2041 25.7771L16.4043 19.7726L16.0305 17.3521Z" fill="#E4751F" stroke="#E4751F" stroke-width="0.133515" stroke-linecap="round" stroke-linejoin="round"/>
<path d="M20.1024 17.3521L19.7419 19.7592L19.9022 25.7771L20.7967 21.2169L20.1024 17.3521Z" fill="#E4751F" stroke="#E4751F" stroke-width="0.133515" stroke-linecap="round" stroke-linejoin="round"/>
<path d="M20.7969 21.2173L19.9023 25.7775L20.5432 26.2188L24.4419 23.1697L24.5754 20.1073L20.7969 21.2173Z" fill="#F6851B" stroke="#F6851B" stroke-width="0.133515" stroke-linecap="round" stroke-linejoin="round"/>
<path d="M11.5576 20.1073L11.6644 23.1697L15.5631 26.2188L16.2039 25.7775L15.3227 21.2173L11.5576 20.1073Z" fill="#F6851B" stroke="#F6851B" stroke-width="0.133515" stroke-linecap="round" stroke-linejoin="round"/>
<path d="M20.8637 30.4179L20.9037 29.1742L20.5699 28.88H15.5364L15.2293 29.1742L15.256 30.4179L11.0503 28.4253L12.519 29.6289L15.4964 31.7017H20.61L23.6007 29.6289L25.0694 28.4253L20.8637 30.4179Z" fill="#C0AD9E" stroke="#C0AD9E" stroke-width="0.133515" stroke-linecap="round" stroke-linejoin="round"/>
<path d="M20.5429 26.2189L19.902 25.7776H16.2037L15.5628 26.2189L15.229 29.1744L15.5361 28.8802H20.5696L20.9034 29.1744L20.5429 26.2189Z" fill="#161616" stroke="#161616" stroke-width="0.133515" stroke-linecap="round" stroke-linejoin="round"/>
<path d="M33.948 10.6124L35.0829 5.15618L33.3873 0.0877686L20.5431 9.63617L25.4832 13.822L32.466 15.868L34.0148 14.0627L33.3472 13.5812L34.4153 12.605L33.5875 11.9631L34.6557 11.1473L33.948 10.6124Z" fill="#763D16" stroke="#763D16" stroke-width="0.133515" stroke-linecap="round" stroke-linejoin="round"/>
<path d="M1.03662 5.15618L2.1715 10.6124L1.45052 11.1473L2.51864 11.9631L1.7042 12.605L2.77232 13.5812L2.10474 14.0627L3.64017 15.868L10.623 13.822L15.5631 9.63617L2.71891 0.0877686L1.03662 5.15618Z" fill="#763D16" stroke="#763D16" stroke-width="0.133515" stroke-linecap="round" stroke-linejoin="round"/>
<path d="M32.4662 15.868L25.4833 13.8219L27.6062 17.0181L24.4419 23.1697L28.6076 23.1162H34.816L32.4662 15.868Z" fill="#F6851B" stroke="#F6851B" stroke-width="0.133515" stroke-linecap="round" stroke-linejoin="round"/>
<path d="M10.6229 13.8219L3.64006 15.868L1.31689 23.1162H7.512L11.6643 23.1697L8.51337 17.0181L10.6229 13.8219Z" fill="#F6851B" stroke="#F6851B" stroke-width="0.133515" stroke-linecap="round" stroke-linejoin="round"/>
<path d="M20.1028 17.3524L20.5434 9.63612L22.5728 4.13977H13.5605L15.5633 9.63612L16.0306 17.3524L16.1908 19.7863L16.2041 25.7775H19.9025L19.9292 19.7863L20.1028 17.3524Z" fill="#F6851B" stroke="#F6851B" stroke-width="0.133515" stroke-linecap="round" stroke-linejoin="round"/>
</svg>
