<svg width="155" height="779" viewBox="0 0 155 779" fill="none" xmlns="http://www.w3.org/2000/svg">
<g filter="url(#filter0_d_519_7925)">
<line x1="75" y1="44" x2="75" y2="733" stroke="#115C70" stroke-width="16" stroke-linecap="round"/>
</g>
<g filter="url(#filter1_d_519_7925)">
<g filter="url(#filter2_d_519_7925)">
<rect x="25" y="21" width="105" height="69" rx="7" fill="#115C70"/>
</g>
<path d="M62.912 67.336C64.592 67.336 66.0573 66.888 67.308 65.992C68.5587 65.0773 69.5293 63.8173 70.22 62.212C70.9293 60.588 71.284 58.7027 71.284 56.556C71.284 54.4093 70.9293 52.5333 70.22 50.928C69.5293 49.304 68.5493 48.044 67.28 47.148C66.0293 46.252 64.564 45.804 62.884 45.804C61.2413 45.804 59.7947 46.252 58.544 47.148C57.2933 48.044 56.3133 49.2947 55.604 50.9C54.9133 52.5053 54.568 54.3907 54.568 56.556C54.568 58.7027 54.9133 60.588 55.604 62.212C56.3133 63.836 57.2933 65.096 58.544 65.992C59.8133 66.888 61.2693 67.336 62.912 67.336ZM62.912 63.864C61.4933 63.864 60.3827 63.2107 59.58 61.904C58.7773 60.5973 58.376 58.8147 58.376 56.556C58.376 54.2787 58.768 52.496 59.552 51.208C60.3547 49.92 61.4653 49.276 62.884 49.276C64.3213 49.276 65.4413 49.9293 66.244 51.236C67.0653 52.524 67.476 54.2973 67.476 56.556C67.476 58.8147 67.0747 60.5973 66.272 61.904C65.4693 63.2107 64.3493 63.864 62.912 63.864ZM80.3842 56.724C81.4109 56.724 82.3349 56.4813 83.1562 55.996C83.9776 55.492 84.6309 54.8293 85.1162 54.008C85.6016 53.1867 85.8442 52.272 85.8442 51.264C85.8442 50.256 85.6016 49.3413 85.1162 48.52C84.6309 47.68 83.9776 47.0173 83.1562 46.532C82.3349 46.0467 81.4109 45.804 80.3842 45.804C79.3576 45.804 78.4242 46.0467 77.5842 46.532C76.7442 47.0173 76.0816 47.68 75.5962 48.52C75.1109 49.3413 74.8682 50.256 74.8682 51.264C74.8682 52.272 75.1109 53.1867 75.5962 54.008C76.0816 54.8293 76.7442 55.492 77.5842 55.996C78.4242 56.4813 79.3576 56.724 80.3842 56.724ZM77.1082 67H81.0282L97.9402 46.14H94.0202L77.1082 67ZM80.3842 53.896C79.5816 53.896 78.9469 53.6253 78.4802 53.084C78.0322 52.5427 77.8082 51.936 77.8082 51.264C77.8082 50.592 78.0322 49.9853 78.4802 49.444C78.9469 48.884 79.5816 48.604 80.3842 48.604C81.1869 48.604 81.8029 48.884 82.2322 49.444C82.6802 49.9853 82.9042 50.592 82.9042 51.264C82.9042 51.936 82.6802 52.5427 82.2322 53.084C81.8029 53.6253 81.1869 53.896 80.3842 53.896ZM94.5802 67.336C95.6069 67.336 96.5309 67.0933 97.3522 66.608C98.1922 66.104 98.8549 65.4413 99.3402 64.62C99.8256 63.7987 100.068 62.884 100.068 61.876C100.068 60.868 99.8256 59.9533 99.3402 59.132C98.8549 58.292 98.1922 57.6293 97.3522 57.144C96.5309 56.6587 95.6069 56.416 94.5802 56.416C93.5536 56.416 92.6202 56.6587 91.7802 57.144C90.9589 57.6293 90.3056 58.292 89.8202 59.132C89.3349 59.9533 89.0922 60.868 89.0922 61.876C89.0922 62.884 89.3349 63.7987 89.8202 64.62C90.3056 65.4413 90.9589 66.104 91.7802 66.608C92.6202 67.0933 93.5536 67.336 94.5802 67.336ZM94.5802 64.508C93.7776 64.508 93.1522 64.2373 92.7042 63.696C92.2562 63.1547 92.0322 62.548 92.0322 61.876C92.0322 61.204 92.2562 60.5973 92.7042 60.056C93.1522 59.496 93.7776 59.216 94.5802 59.216C95.3829 59.216 96.0082 59.496 96.4562 60.056C96.9042 60.5973 97.1282 61.204 97.1282 61.876C97.1282 62.548 96.9042 63.1547 96.4562 63.696C96.0082 64.2373 95.3829 64.508 94.5802 64.508Z" fill="white"/>
</g>
<g filter="url(#filter3_d_519_7925)">
<g filter="url(#filter4_d_519_7925)">
<rect x="25" y="241" width="105" height="69" rx="7" fill="#115C70"/>
</g>
<path d="M47.288 287H61.288V283.78H52.244L57.144 278.628C58.4693 277.247 59.44 276.024 60.056 274.96C60.6907 273.896 61.008 272.795 61.008 271.656C61.008 270.499 60.7187 269.481 60.14 268.604C59.58 267.727 58.7867 267.045 57.76 266.56C56.752 266.056 55.576 265.804 54.232 265.804C53.112 265.804 52.048 266.028 51.04 266.476C50.0507 266.905 49.2107 267.531 48.52 268.352C47.8293 269.155 47.372 270.107 47.148 271.208L50.48 272.244C50.7787 271.255 51.2547 270.508 51.908 270.004C52.5613 269.481 53.336 269.22 54.232 269.22C55.0907 269.22 55.7907 269.472 56.332 269.976C56.892 270.48 57.172 271.171 57.172 272.048C57.172 272.571 57.0507 273.084 56.808 273.588C56.5653 274.092 56.136 274.699 55.52 275.408C54.904 276.117 54.0453 277.051 52.944 278.208L47.288 284.144V287ZM71.023 287.336C72.4604 287.336 73.739 287.028 74.859 286.412C75.979 285.777 76.8564 284.928 77.491 283.864C78.1444 282.781 78.471 281.568 78.471 280.224C78.471 278.899 78.191 277.723 77.631 276.696C77.071 275.651 76.2777 274.829 75.251 274.232C74.243 273.635 73.0484 273.336 71.667 273.336C70.3417 273.336 69.2497 273.607 68.391 274.148L69.035 269.36H77.687V266.14H66.319L64.667 277.732L67.775 278.432C68.0364 277.835 68.4564 277.377 69.035 277.06C69.6324 276.743 70.295 276.584 71.023 276.584C72.087 276.584 72.955 276.92 73.627 277.592C74.299 278.264 74.635 279.141 74.635 280.224C74.635 281.307 74.299 282.193 73.627 282.884C72.955 283.575 72.087 283.92 71.023 283.92C70.1644 283.92 69.3804 283.687 68.671 283.22C67.9617 282.735 67.4484 282.025 67.131 281.092L63.827 282.268C64.0884 283.313 64.5737 284.219 65.283 284.984C66.011 285.749 66.8697 286.337 67.859 286.748C68.867 287.14 69.9217 287.336 71.023 287.336ZM87.4936 276.724C88.5203 276.724 89.4443 276.481 90.2656 275.996C91.0869 275.492 91.7403 274.829 92.2256 274.008C92.7109 273.187 92.9536 272.272 92.9536 271.264C92.9536 270.256 92.7109 269.341 92.2256 268.52C91.7403 267.68 91.0869 267.017 90.2656 266.532C89.4443 266.047 88.5203 265.804 87.4936 265.804C86.4669 265.804 85.5336 266.047 84.6936 266.532C83.8536 267.017 83.1909 267.68 82.7056 268.52C82.2203 269.341 81.9776 270.256 81.9776 271.264C81.9776 272.272 82.2203 273.187 82.7056 274.008C83.1909 274.829 83.8536 275.492 84.6936 275.996C85.5336 276.481 86.4669 276.724 87.4936 276.724ZM84.2176 287H88.1376L105.05 266.14H101.13L84.2176 287ZM87.4936 273.896C86.6909 273.896 86.0563 273.625 85.5896 273.084C85.1416 272.543 84.9176 271.936 84.9176 271.264C84.9176 270.592 85.1416 269.985 85.5896 269.444C86.0563 268.884 86.6909 268.604 87.4936 268.604C88.2963 268.604 88.9123 268.884 89.3416 269.444C89.7896 269.985 90.0136 270.592 90.0136 271.264C90.0136 271.936 89.7896 272.543 89.3416 273.084C88.9123 273.625 88.2963 273.896 87.4936 273.896ZM101.69 287.336C102.716 287.336 103.64 287.093 104.462 286.608C105.302 286.104 105.964 285.441 106.45 284.62C106.935 283.799 107.178 282.884 107.178 281.876C107.178 280.868 106.935 279.953 106.45 279.132C105.964 278.292 105.302 277.629 104.462 277.144C103.64 276.659 102.716 276.416 101.69 276.416C100.663 276.416 99.7296 276.659 98.8896 277.144C98.0683 277.629 97.4149 278.292 96.9296 279.132C96.4443 279.953 96.2016 280.868 96.2016 281.876C96.2016 282.884 96.4443 283.799 96.9296 284.62C97.4149 285.441 98.0683 286.104 98.8896 286.608C99.7296 287.093 100.663 287.336 101.69 287.336ZM101.69 284.508C100.887 284.508 100.262 284.237 99.8136 283.696C99.3656 283.155 99.1416 282.548 99.1416 281.876C99.1416 281.204 99.3656 280.597 99.8136 280.056C100.262 279.496 100.887 279.216 101.69 279.216C102.492 279.216 103.118 279.496 103.566 280.056C104.014 280.597 104.238 281.204 104.238 281.876C104.238 282.548 104.014 283.155 103.566 283.696C103.118 284.237 102.492 284.508 101.69 284.508Z" fill="white"/>
</g>
<g filter="url(#filter5_d_519_7925)">
<g filter="url(#filter6_d_519_7925)">
<rect x="25" y="461" width="105" height="69" rx="7" fill="#115C70"/>
</g>
<path d="M48.016 507H52.216L60.7 489.332V486.112H46.868V489.332H56.696L48.016 507ZM69.4098 507.336C70.8471 507.336 72.1258 507.028 73.2458 506.412C74.3658 505.777 75.2431 504.928 75.8777 503.864C76.5311 502.781 76.8578 501.568 76.8578 500.224C76.8578 498.899 76.5778 497.723 76.0178 496.696C75.4578 495.651 74.6644 494.829 73.6378 494.232C72.6298 493.635 71.4351 493.336 70.0538 493.336C68.7284 493.336 67.6364 493.607 66.7778 494.148L67.4218 489.36H76.0738V486.14H64.7058L63.0538 497.732L66.1618 498.432C66.4231 497.835 66.8431 497.377 67.4218 497.06C68.0191 496.743 68.6818 496.584 69.4098 496.584C70.4738 496.584 71.3418 496.92 72.0138 497.592C72.6858 498.264 73.0218 499.141 73.0218 500.224C73.0218 501.307 72.6858 502.193 72.0138 502.884C71.3418 503.575 70.4738 503.92 69.4098 503.92C68.5511 503.92 67.7671 503.687 67.0578 503.22C66.3484 502.735 65.8351 502.025 65.5178 501.092L62.2138 502.268C62.4751 503.313 62.9604 504.219 63.6698 504.984C64.3978 505.749 65.2564 506.337 66.2458 506.748C67.2538 507.14 68.3084 507.336 69.4098 507.336ZM85.8803 496.724C86.907 496.724 87.831 496.481 88.6523 495.996C89.4736 495.492 90.127 494.829 90.6123 494.008C91.0976 493.187 91.3403 492.272 91.3403 491.264C91.3403 490.256 91.0976 489.341 90.6123 488.52C90.127 487.68 89.4736 487.017 88.6523 486.532C87.831 486.047 86.907 485.804 85.8803 485.804C84.8536 485.804 83.9203 486.047 83.0803 486.532C82.2403 487.017 81.5776 487.68 81.0923 488.52C80.607 489.341 80.3643 490.256 80.3643 491.264C80.3643 492.272 80.607 493.187 81.0923 494.008C81.5776 494.829 82.2403 495.492 83.0803 495.996C83.9203 496.481 84.8536 496.724 85.8803 496.724ZM82.6043 507H86.5243L103.436 486.14H99.5163L82.6043 507ZM85.8803 493.896C85.0776 493.896 84.443 493.625 83.9763 493.084C83.5283 492.543 83.3043 491.936 83.3043 491.264C83.3043 490.592 83.5283 489.985 83.9763 489.444C84.443 488.884 85.0776 488.604 85.8803 488.604C86.683 488.604 87.299 488.884 87.7283 489.444C88.1763 489.985 88.4003 490.592 88.4003 491.264C88.4003 491.936 88.1763 492.543 87.7283 493.084C87.299 493.625 86.683 493.896 85.8803 493.896ZM100.076 507.336C101.103 507.336 102.027 507.093 102.848 506.608C103.688 506.104 104.351 505.441 104.836 504.62C105.322 503.799 105.564 502.884 105.564 501.876C105.564 500.868 105.322 499.953 104.836 499.132C104.351 498.292 103.688 497.629 102.848 497.144C102.027 496.659 101.103 496.416 100.076 496.416C99.0496 496.416 98.1163 496.659 97.2763 497.144C96.455 497.629 95.8016 498.292 95.3163 499.132C94.831 499.953 94.5883 500.868 94.5883 501.876C94.5883 502.884 94.831 503.799 95.3163 504.62C95.8016 505.441 96.455 506.104 97.2763 506.608C98.1163 507.093 99.0496 507.336 100.076 507.336ZM100.076 504.508C99.2736 504.508 98.6483 504.237 98.2003 503.696C97.7523 503.155 97.5283 502.548 97.5283 501.876C97.5283 501.204 97.7523 500.597 98.2003 500.056C98.6483 499.496 99.2736 499.216 100.076 499.216C100.879 499.216 101.504 499.496 101.952 500.056C102.4 500.597 102.624 501.204 102.624 501.876C102.624 502.548 102.4 503.155 101.952 503.696C101.504 504.237 100.879 504.508 100.076 504.508Z" fill="white"/>
</g>
<g filter="url(#filter7_d_519_7925)">
<g filter="url(#filter8_d_519_7925)">
<rect x="25" y="681" width="105" height="69" rx="7" fill="#115C70"/>
</g>
<path d="M41.844 727H45.652V706.14H37.812V709.388H41.844V727ZM58.205 727.336C59.885 727.336 61.3503 726.888 62.601 725.992C63.8516 725.077 64.8223 723.817 65.513 722.212C66.2223 720.588 66.577 718.703 66.577 716.556C66.577 714.409 66.2223 712.533 65.513 710.928C64.8223 709.304 63.8423 708.044 62.573 707.148C61.3223 706.252 59.857 705.804 58.177 705.804C56.5343 705.804 55.0876 706.252 53.837 707.148C52.5863 708.044 51.6063 709.295 50.897 710.9C50.2063 712.505 49.861 714.391 49.861 716.556C49.861 718.703 50.2063 720.588 50.897 722.212C51.6063 723.836 52.5863 725.096 53.837 725.992C55.1063 726.888 56.5623 727.336 58.205 727.336ZM58.205 723.864C56.7863 723.864 55.6756 723.211 54.873 721.904C54.0703 720.597 53.669 718.815 53.669 716.556C53.669 714.279 54.061 712.496 54.845 711.208C55.6476 709.92 56.7583 709.276 58.177 709.276C59.6143 709.276 60.7343 709.929 61.537 711.236C62.3583 712.524 62.769 714.297 62.769 716.556C62.769 718.815 62.3676 720.597 61.565 721.904C60.7623 723.211 59.6423 723.864 58.205 723.864ZM78.0292 727.336C79.7092 727.336 81.1745 726.888 82.4252 725.992C83.6759 725.077 84.6465 723.817 85.3372 722.212C86.0465 720.588 86.4012 718.703 86.4012 716.556C86.4012 714.409 86.0465 712.533 85.3372 710.928C84.6465 709.304 83.6665 708.044 82.3972 707.148C81.1465 706.252 79.6812 705.804 78.0012 705.804C76.3585 705.804 74.9119 706.252 73.6612 707.148C72.4105 708.044 71.4305 709.295 70.7212 710.9C70.0305 712.505 69.6852 714.391 69.6852 716.556C69.6852 718.703 70.0305 720.588 70.7212 722.212C71.4305 723.836 72.4105 725.096 73.6612 725.992C74.9305 726.888 76.3865 727.336 78.0292 727.336ZM78.0292 723.864C76.6105 723.864 75.4999 723.211 74.6972 721.904C73.8945 720.597 73.4932 718.815 73.4932 716.556C73.4932 714.279 73.8852 712.496 74.6692 711.208C75.4719 709.92 76.5825 709.276 78.0012 709.276C79.4385 709.276 80.5585 709.929 81.3612 711.236C82.1825 712.524 82.5932 714.297 82.5932 716.556C82.5932 718.815 82.1919 720.597 81.3892 721.904C80.5865 723.211 79.4665 723.864 78.0292 723.864ZM95.5014 716.724C96.5281 716.724 97.4521 716.481 98.2734 715.996C99.0947 715.492 99.7481 714.829 100.233 714.008C100.719 713.187 100.961 712.272 100.961 711.264C100.961 710.256 100.719 709.341 100.233 708.52C99.7481 707.68 99.0947 707.017 98.2734 706.532C97.4521 706.047 96.5281 705.804 95.5014 705.804C94.4747 705.804 93.5414 706.047 92.7014 706.532C91.8614 707.017 91.1987 707.68 90.7134 708.52C90.2281 709.341 89.9854 710.256 89.9854 711.264C89.9854 712.272 90.2281 713.187 90.7134 714.008C91.1987 714.829 91.8614 715.492 92.7014 715.996C93.5414 716.481 94.4747 716.724 95.5014 716.724ZM92.2254 727H96.1454L113.057 706.14H109.137L92.2254 727ZM95.5014 713.896C94.6987 713.896 94.0641 713.625 93.5974 713.084C93.1494 712.543 92.9254 711.936 92.9254 711.264C92.9254 710.592 93.1494 709.985 93.5974 709.444C94.0641 708.884 94.6987 708.604 95.5014 708.604C96.3041 708.604 96.9201 708.884 97.3494 709.444C97.7974 709.985 98.0214 710.592 98.0214 711.264C98.0214 711.936 97.7974 712.543 97.3494 713.084C96.9201 713.625 96.3041 713.896 95.5014 713.896ZM109.697 727.336C110.724 727.336 111.648 727.093 112.469 726.608C113.309 726.104 113.972 725.441 114.457 724.62C114.943 723.799 115.185 722.884 115.185 721.876C115.185 720.868 114.943 719.953 114.457 719.132C113.972 718.292 113.309 717.629 112.469 717.144C111.648 716.659 110.724 716.416 109.697 716.416C108.671 716.416 107.737 716.659 106.897 717.144C106.076 717.629 105.423 718.292 104.937 719.132C104.452 719.953 104.209 720.868 104.209 721.876C104.209 722.884 104.452 723.799 104.937 724.62C105.423 725.441 106.076 726.104 106.897 726.608C107.737 727.093 108.671 727.336 109.697 727.336ZM109.697 724.508C108.895 724.508 108.269 724.237 107.821 723.696C107.373 723.155 107.149 722.548 107.149 721.876C107.149 721.204 107.373 720.597 107.821 720.056C108.269 719.496 108.895 719.216 109.697 719.216C110.5 719.216 111.125 719.496 111.573 720.056C112.021 720.597 112.245 721.204 112.245 721.876C112.245 722.548 112.021 723.155 111.573 723.696C111.125 724.237 110.5 724.508 109.697 724.508Z" fill="white"/>
</g>
<defs>
<filter id="filter0_d_519_7925" x="63" y="36" width="24" height="713" filterUnits="userSpaceOnUse" color-interpolation-filters="sRGB">
<feFlood flood-opacity="0" result="BackgroundImageFix"/>
<feColorMatrix in="SourceAlpha" type="matrix" values="0 0 0 0 0 0 0 0 0 0 0 0 0 0 0 0 0 0 127 0" result="hardAlpha"/>
<feOffset dy="4"/>
<feGaussianBlur stdDeviation="2"/>
<feComposite in2="hardAlpha" operator="out"/>
<feColorMatrix type="matrix" values="0 0 0 0 0 0 0 0 0 0 0 0 0 0 0 0 0 0 0.25 0"/>
<feBlend mode="normal" in2="BackgroundImageFix" result="effect1_dropShadow_519_7925"/>
<feBlend mode="normal" in="SourceGraphic" in2="effect1_dropShadow_519_7925" result="shape"/>
</filter>
<filter id="filter1_d_519_7925" x="21" y="21" width="113" height="77" filterUnits="userSpaceOnUse" color-interpolation-filters="sRGB">
<feFlood flood-opacity="0" result="BackgroundImageFix"/>
<feColorMatrix in="SourceAlpha" type="matrix" values="0 0 0 0 0 0 0 0 0 0 0 0 0 0 0 0 0 0 127 0" result="hardAlpha"/>
<feOffset dy="4"/>
<feGaussianBlur stdDeviation="2"/>
<feComposite in2="hardAlpha" operator="out"/>
<feColorMatrix type="matrix" values="0 0 0 0 0 0 0 0 0 0 0 0 0 0 0 0 0 0 0.25 0"/>
<feBlend mode="normal" in2="BackgroundImageFix" result="effect1_dropShadow_519_7925"/>
<feBlend mode="normal" in="SourceGraphic" in2="effect1_dropShadow_519_7925" result="shape"/>
</filter>
<filter id="filter2_d_519_7925" x="0" y="0" width="155" height="119" filterUnits="userSpaceOnUse" color-interpolation-filters="sRGB">
<feFlood flood-opacity="0" result="BackgroundImageFix"/>
<feColorMatrix in="SourceAlpha" type="matrix" values="0 0 0 0 0 0 0 0 0 0 0 0 0 0 0 0 0 0 127 0" result="hardAlpha"/>
<feOffset dy="4"/>
<feGaussianBlur stdDeviation="12.5"/>
<feComposite in2="hardAlpha" operator="out"/>
<feColorMatrix type="matrix" values="0 0 0 0 0 0 0 0 0 0 0 0 0 0 0 0 0 0 0.25 0"/>
<feBlend mode="normal" in2="BackgroundImageFix" result="effect1_dropShadow_519_7925"/>
<feBlend mode="normal" in="SourceGraphic" in2="effect1_dropShadow_519_7925" result="shape"/>
</filter>
<filter id="filter3_d_519_7925" x="21" y="241" width="113" height="77" filterUnits="userSpaceOnUse" color-interpolation-filters="sRGB">
<feFlood flood-opacity="0" result="BackgroundImageFix"/>
<feColorMatrix in="SourceAlpha" type="matrix" values="0 0 0 0 0 0 0 0 0 0 0 0 0 0 0 0 0 0 127 0" result="hardAlpha"/>
<feOffset dy="4"/>
<feGaussianBlur stdDeviation="2"/>
<feComposite in2="hardAlpha" operator="out"/>
<feColorMatrix type="matrix" values="0 0 0 0 0 0 0 0 0 0 0 0 0 0 0 0 0 0 0.25 0"/>
<feBlend mode="normal" in2="BackgroundImageFix" result="effect1_dropShadow_519_7925"/>
<feBlend mode="normal" in="SourceGraphic" in2="effect1_dropShadow_519_7925" result="shape"/>
</filter>
<filter id="filter4_d_519_7925" x="0" y="220" width="155" height="119" filterUnits="userSpaceOnUse" color-interpolation-filters="sRGB">
<feFlood flood-opacity="0" result="BackgroundImageFix"/>
<feColorMatrix in="SourceAlpha" type="matrix" values="0 0 0 0 0 0 0 0 0 0 0 0 0 0 0 0 0 0 127 0" result="hardAlpha"/>
<feOffset dy="4"/>
<feGaussianBlur stdDeviation="12.5"/>
<feComposite in2="hardAlpha" operator="out"/>
<feColorMatrix type="matrix" values="0 0 0 0 0 0 0 0 0 0 0 0 0 0 0 0 0 0 0.25 0"/>
<feBlend mode="normal" in2="BackgroundImageFix" result="effect1_dropShadow_519_7925"/>
<feBlend mode="normal" in="SourceGraphic" in2="effect1_dropShadow_519_7925" result="shape"/>
</filter>
<filter id="filter5_d_519_7925" x="21" y="461" width="113" height="77" filterUnits="userSpaceOnUse" color-interpolation-filters="sRGB">
<feFlood flood-opacity="0" result="BackgroundImageFix"/>
<feColorMatrix in="SourceAlpha" type="matrix" values="0 0 0 0 0 0 0 0 0 0 0 0 0 0 0 0 0 0 127 0" result="hardAlpha"/>
<feOffset dy="4"/>
<feGaussianBlur stdDeviation="2"/>
<feComposite in2="hardAlpha" operator="out"/>
<feColorMatrix type="matrix" values="0 0 0 0 0 0 0 0 0 0 0 0 0 0 0 0 0 0 0.25 0"/>
<feBlend mode="normal" in2="BackgroundImageFix" result="effect1_dropShadow_519_7925"/>
<feBlend mode="normal" in="SourceGraphic" in2="effect1_dropShadow_519_7925" result="shape"/>
</filter>
<filter id="filter6_d_519_7925" x="0" y="440" width="155" height="119" filterUnits="userSpaceOnUse" color-interpolation-filters="sRGB">
<feFlood flood-opacity="0" result="BackgroundImageFix"/>
<feColorMatrix in="SourceAlpha" type="matrix" values="0 0 0 0 0 0 0 0 0 0 0 0 0 0 0 0 0 0 127 0" result="hardAlpha"/>
<feOffset dy="4"/>
<feGaussianBlur stdDeviation="12.5"/>
<feComposite in2="hardAlpha" operator="out"/>
<feColorMatrix type="matrix" values="0 0 0 0 0 0 0 0 0 0 0 0 0 0 0 0 0 0 0.25 0"/>
<feBlend mode="normal" in2="BackgroundImageFix" result="effect1_dropShadow_519_7925"/>
<feBlend mode="normal" in="SourceGraphic" in2="effect1_dropShadow_519_7925" result="shape"/>
</filter>
<filter id="filter7_d_519_7925" x="21" y="681" width="113" height="77" filterUnits="userSpaceOnUse" color-interpolation-filters="sRGB">
<feFlood flood-opacity="0" result="BackgroundImageFix"/>
<feColorMatrix in="SourceAlpha" type="matrix" values="0 0 0 0 0 0 0 0 0 0 0 0 0 0 0 0 0 0 127 0" result="hardAlpha"/>
<feOffset dy="4"/>
<feGaussianBlur stdDeviation="2"/>
<feComposite in2="hardAlpha" operator="out"/>
<feColorMatrix type="matrix" values="0 0 0 0 0 0 0 0 0 0 0 0 0 0 0 0 0 0 0.25 0"/>
<feBlend mode="normal" in2="BackgroundImageFix" result="effect1_dropShadow_519_7925"/>
<feBlend mode="normal" in="SourceGraphic" in2="effect1_dropShadow_519_7925" result="shape"/>
</filter>
<filter id="filter8_d_519_7925" x="0" y="660" width="155" height="119" filterUnits="userSpaceOnUse" color-interpolation-filters="sRGB">
<feFlood flood-opacity="0" result="BackgroundImageFix"/>
<feColorMatrix in="SourceAlpha" type="matrix" values="0 0 0 0 0 0 0 0 0 0 0 0 0 0 0 0 0 0 127 0" result="hardAlpha"/>
<feOffset dy="4"/>
<feGaussianBlur stdDeviation="12.5"/>
<feComposite in2="hardAlpha" operator="out"/>
<feColorMatrix type="matrix" values="0 0 0 0 0 0 0 0 0 0 0 0 0 0 0 0 0 0 0.25 0"/>
<feBlend mode="normal" in2="BackgroundImageFix" result="effect1_dropShadow_519_7925"/>
<feBlend mode="normal" in="SourceGraphic" in2="effect1_dropShadow_519_7925" result="shape"/>
</filter>
</defs>
</svg>
