<svg width="26" height="31" viewBox="0 0 26 31" fill="none" xmlns="http://www.w3.org/2000/svg">
<path d="M10.9858 17.9013C10.9858 17.6679 11.175 17.4788 11.4084 17.4788H24.9295C25.1629 17.4788 25.352 17.6679 25.352 17.9013V28.0421C25.352 29.6757 24.0278 30.9999 22.3943 30.9999H13.9436C12.3101 30.9999 10.9858 29.6757 10.9858 28.0421V17.9013Z" fill="#115C70"/>
<mask id="path-2-inside-1_300_11087" fill="white">
<path d="M0 6.91545C0 6.68209 0.189175 6.49292 0.422535 6.49292H19.4366C19.67 6.49292 19.8592 6.6821 19.8592 6.91546V26.7746C19.8592 28.4081 18.5349 29.7324 16.9014 29.7324H2.95775C1.32423 29.7324 0 28.4081 0 26.7746V6.91545Z"/>
</mask>
<path d="M0 6.91545C0 6.68209 0.189175 6.49292 0.422535 6.49292H19.4366C19.67 6.49292 19.8592 6.6821 19.8592 6.91546V26.7746C19.8592 28.4081 18.5349 29.7324 16.9014 29.7324H2.95775C1.32423 29.7324 0 28.4081 0 26.7746V6.91545Z" stroke="#115C70" stroke-width="3" mask="url(#path-2-inside-1_300_11087)"/>
<path d="M14.7886 9.87324V5.85916C14.7886 3.17552 12.6131 1 9.92947 1V1C7.24583 1 5.07031 3.17552 5.07031 5.85915V9.87324" stroke="#115C70" stroke-width="1.5" stroke-linecap="round"/>
<path d="M15.2115 20.4367L15.2115 21.2818C15.2115 22.9153 16.5357 24.2395 18.1692 24.2395V24.2395C19.8027 24.2395 21.127 22.9153 21.127 21.2818L21.127 20.4367" stroke="#E0E0E0" stroke-width="1.5" stroke-linecap="round"/>
</svg>
