<svg width="15" height="27" viewBox="0 0 15 27" fill="none" xmlns="http://www.w3.org/2000/svg">
<path d="M13.4802 0.459375C13.7787 0.17228 14.2535 0.18159 14.5406 0.480168C14.8277 0.778747 14.8184 1.25353 14.5198 1.54062L13.4802 0.459375ZM1 13.5L0.480168 14.0406C0.333109 13.8992 0.25 13.704 0.25 13.5C0.25 13.296 0.333109 13.1008 0.480168 12.9594L1 13.5ZM14.5198 25.4594C14.8184 25.7465 14.8277 26.2213 14.5406 26.5198C14.2535 26.8184 13.7787 26.8277 13.4802 26.5406L14.5198 25.4594ZM14.5198 1.54062L1.51983 14.0406L0.480168 12.9594L13.4802 0.459375L14.5198 1.54062ZM1.51983 12.9594L14.5198 25.4594L13.4802 26.5406L0.480168 14.0406L1.51983 12.9594Z" fill="white"/>
</svg>
