<svg width="34" height="33" viewBox="0 0 34 33" fill="none" xmlns="http://www.w3.org/2000/svg">
<path fill-rule="evenodd" clip-rule="evenodd" d="M0 6C0 2.68629 2.68629 0 6 0H28C31.3137 0 34 2.68629 34 6V27C34 30.3137 31.3137 33 28 33H6C2.68629 33 0 30.3137 0 27V6ZM6 23.9518C6 23.6723 6.22655 23.4458 6.50602 23.4458H8.27711V14.5904C8.27711 14.4506 8.39039 14.3373 8.53012 14.3373H12.5783C12.7181 14.3373 12.8313 14.4506 12.8313 14.5904V23.4458H14.3494V15.8554C14.3494 15.7157 14.4627 15.6024 14.6024 15.6024H18.6506C18.7903 15.6024 18.9036 15.7157 18.9036 15.8554V23.4458H20.4217V12.5663C20.4217 12.4265 20.535 12.3132 20.6747 12.3132H24.7229C24.8626 12.3132 24.9759 12.4265 24.9759 12.5663V23.4458H26.494C26.7734 23.4458 27 23.6723 27 23.9518C27 24.2313 26.7734 24.4578 26.494 24.4578H18.6532L18.6506 24.4578H14.6024L14.5998 24.4578H6.50602C6.22655 24.4578 6 24.2313 6 23.9518ZM22.5011 9.12017L17.6011 12.1492C17.6256 12.242 17.6385 12.3394 17.6385 12.4398C17.6385 13.0686 17.1288 13.5783 16.5 13.5783C15.9543 13.5783 15.4983 13.1945 15.3873 12.6821L9.80656 11.8761C9.59815 12.1422 9.27386 12.3132 8.90964 12.3132C8.28083 12.3132 7.77108 11.8035 7.77108 11.1747C7.77108 10.5459 8.28083 10.0361 8.90964 10.0361C9.43761 10.0361 9.88165 10.3955 10.0105 10.883L15.6381 11.6958C15.8469 11.4541 16.1556 11.3012 16.5 11.3012C16.6481 11.3012 16.7896 11.3295 16.9193 11.3809L21.9475 8.27256C21.9424 8.22861 21.9397 8.18389 21.9397 8.13855C21.9397 7.50975 22.4495 7 23.0783 7C23.7071 7 24.2168 7.50975 24.2168 8.13855C24.2168 8.76736 23.7071 9.27711 23.0783 9.27711C22.8676 9.27711 22.6703 9.2199 22.5011 9.12017Z" fill="white"/>
</svg>
