<svg width="34" height="32" viewBox="0 0 34 32" fill="none" xmlns="http://www.w3.org/2000/svg">
<g clip-path="url(#clip0_303_12332)">
<path d="M32.1302 1.74506C30.8838 0.58176 29.382 0 27.6261 0H6.37594C4.62002 0 3.11825 0.58176 1.87125 1.74506C0.624478 2.90858 0.000976562 4.30974 0.000976562 5.94818V25.7755C0.000976562 27.4138 0.624478 28.8151 1.87125 29.9786C3.11825 31.1421 4.62002 31.7239 6.37594 31.7239H27.6259C29.3818 31.7239 30.8835 31.1421 32.13 29.9786C33.377 28.8151 34.0005 27.4138 34.0005 25.7755V5.94818C34.0004 4.30974 33.3769 2.90837 32.1302 1.74506ZM26.01 12.2063C26.0248 12.3302 26.0324 12.5158 26.0324 12.7641C26.0324 13.9207 25.8514 15.0808 25.49 16.2439C25.1287 17.4077 24.5752 18.5229 23.8296 19.59C23.0849 20.6569 22.1958 21.6004 21.1629 22.4195C20.1298 23.2384 18.8904 23.8928 17.4439 24.3812C15.9981 24.8704 14.4484 25.1149 12.7957 25.1149C10.2282 25.1149 7.85235 24.4673 5.66824 23.1736C6.0224 23.2147 6.39152 23.2355 6.77499 23.2355C8.91483 23.2355 10.8406 22.6159 12.5525 21.3763C11.5492 21.3629 10.6525 21.074 9.86311 20.5089C9.07346 19.9444 8.52392 19.2285 8.21396 18.361C8.5975 18.416 8.88522 18.4433 9.07703 18.4433C9.40165 18.4433 9.77806 18.3883 10.2059 18.2784C9.12866 18.0853 8.22124 17.5867 7.48338 16.7812C6.74537 15.9756 6.37648 15.0566 6.37648 14.024V13.9827C7.15838 14.3267 7.89624 14.5057 8.5899 14.5196C7.24699 13.6795 6.57558 12.4749 6.57558 10.9053C6.57558 10.1341 6.78941 9.40445 7.21738 8.71599C8.38305 10.0517 9.8 11.1186 11.4673 11.9172C13.1348 12.7157 14.9205 13.1634 16.824 13.2597C16.7504 12.9981 16.7134 12.6675 16.7134 12.2683C16.7134 11.0702 17.1672 10.0481 18.0748 9.20117C18.9822 8.35436 20.078 7.9308 21.3617 7.9308C22.7196 7.9308 23.8488 8.38532 24.7488 9.29413C25.7671 9.11516 26.7563 8.76387 27.7152 8.24085C27.3464 9.30078 26.6597 10.1064 25.6567 10.6572C26.6156 10.533 27.5082 10.2991 28.3344 9.95488C27.7147 10.8361 26.9397 11.5864 26.01 12.2063Z" fill="white"/>
</g>
<defs>
<clipPath id="clip0_303_12332">
<rect width="34" height="32" fill="white"/>
</clipPath>
</defs>
</svg>
