<svg width="34" height="33" viewBox="0 0 34 33" fill="none" xmlns="http://www.w3.org/2000/svg">
<path fill-rule="evenodd" clip-rule="evenodd" d="M6 0C2.68629 0 0 2.68629 0 6V27C0 30.3137 2.68629 33 6 33H28C31.3137 33 34 30.3137 34 27V6C34 2.68629 31.3137 0 28 0H6ZM17.696 24.1568C18.2173 23.8448 18.7247 23.3062 19.1833 22.4857C19.6481 21.6539 20.0152 20.5999 20.2424 19.388H17.696V24.1568ZM16.196 24.4789V19.388H12.7576C12.9848 20.5999 13.3519 21.6539 13.8167 22.4857C14.5347 23.7705 15.3725 24.364 16.196 24.4789ZM12.5569 17.888H16.196V14H12.6905C12.5669 14.7793 12.5 15.6179 12.5 16.5C12.5 16.9762 12.5195 17.4397 12.5569 17.888ZM11.1736 14C11.0595 14.7966 11 15.6348 11 16.5C11 16.9715 11.0177 17.4349 11.0522 17.888H8.61998C8.54112 17.4372 8.5 16.9734 8.5 16.5C8.5 15.6269 8.63985 14.7865 8.89838 14H11.1736ZM13.0171 12.5H16.196V8.52107C15.3725 8.63599 14.5347 9.22952 13.8167 10.5143C13.5005 11.0801 13.2295 11.7488 13.0171 12.5ZM12.6974 9.45978C12.171 10.3082 11.754 11.3407 11.4651 12.5H9.57026C10.3105 11.2203 11.3951 10.1646 12.6974 9.45978ZM16.5 7C21.7467 7 26 11.2533 26 16.5C26 21.7467 21.7467 26 16.5 26C11.2533 26 7 21.7467 7 16.5C7 11.2533 11.2533 7 16.5 7ZM12.6974 23.5402C11.0345 22.6402 9.72655 21.1682 9.03717 19.388H11.2341C11.5063 21.0022 12.0079 22.429 12.6974 23.5402ZM20.3026 23.5402C21.9655 22.6402 23.2734 21.1682 23.9628 19.388H21.7659C21.4937 21.0022 20.9921 22.429 20.3026 23.5402ZM21.9478 17.888H24.38C24.4589 17.4372 24.5 16.9734 24.5 16.5C24.5 15.6269 24.3601 14.7865 24.1016 14H21.8264C21.9405 14.7966 22 15.6348 22 16.5C22 16.9715 21.9823 17.4349 21.9478 17.888ZM20.3095 14H17.696V17.888H20.4431C20.4805 17.4397 20.5 16.9762 20.5 16.5C20.5 15.6179 20.4331 14.7793 20.3095 14ZM19.9829 12.5H17.696V8.84317C18.2173 9.1552 18.7247 9.69377 19.1833 10.5143C19.4995 11.0801 19.7705 11.7488 19.9829 12.5ZM21.5349 12.5H23.4297C22.6895 11.2203 21.6049 10.1646 20.3026 9.45978C20.829 10.3082 21.246 11.3407 21.5349 12.5Z" fill="white"/>
</svg>
